PathFileType	4	(X/Y/Z)	Patient4_TMGait_0pt7_01_right_19.trc.trc
DataRate	CameraRate	NumFrames	NumMarkers	Units	OrigDataRate	OrigDataStartFrame	OrigNumFrames
84.848484848485	84.848484848485	5	33	mm	84.848484848485	71	       141
Frame#	Time	Sacral			L.Shoulder			Chest			R.Shoulder			Neck			R.ASIS			L.ASIS			R.Thigh.Superior			R.Thigh.Lateral			R.Thigh.Inferior			R.Patella			L.Thigh.Superior			L.Thigh.Lateral			L.Thigh.Inferior			L.Patella			L.Shank.Superior			L.Shank.Lateral			L.Shank.Inferior			R.Shank.Superior			R.Shank.Lateral			R.Shank.Inferior			R.Heel			R.Midfoot.Superior			R.Midfoot.Lateral			R.Toe			L.Heel			L.Midfoot.Lateral			L.Midfoot.Superior			L.Toe			L.Elbow			L.Wrist			R.Elbow			R.Wrist			
		X1	Y1	Z1	X2	Y2	Z2	X3	Y3	Z3	X4	Y4	Z4	X5	Y5	Z5	X6	Y6	Z6	X7	Y7	Z7	X8	Y8	Z8	X9	Y9	Z9	X10	Y10	Z10	X11	Y11	Z11	X12	Y12	Z12	X13	Y13	Z13	X14	Y14	Z14	X15	Y15	Z15	X16	Y16	Z16	X17	Y17	Z17	X18	Y18	Z18	X19	Y19	Z19	X20	Y20	Z20	X21	Y21	Z21	X22	Y22	Z22	X23	Y23	Z23	X24	Y24	Z24	X25	Y25	Z25	X26	Y26	Z26	X27	Y27	Z27	X28	Y28	Z28	X29	Y29	Z29	X30	Y30	Z30	X31	Y31	Z31	X32	Y32	Z32	X33	Y33	Z33	

71	22.055000000000	827.190353685656	998.224237938625	514.938395533046	1002.944911533460	1422.534357846907	328.866681113797	1116.446524135364	1346.431144208490	479.982030242576	1051.404889029991	1423.152507859091	658.705593411090	1020.849816625348	1480.053578734657	485.122452095279	1054.768580085698	933.788766736237	626.406299049435	1034.592513173215	943.590288640604	350.318520108865	1050.187058662157	720.638733447336	601.960330835748	942.355826606621	628.290867722281	660.798346441881	1002.559048319789	561.603817149144	581.921142639150	981.058453130012	476.117541459524	584.465861146274	1109.112482252243	766.909382239351	379.564399457763	1062.915627168977	636.901133017677	298.760532143024	1169.949584384077	582.183168423651	355.915817262265	1198.042837735810	518.136733908819	352.519630356207	1184.430621017213	445.244132562140	341.510393244339	1122.231030387521	313.341148500476	292.580740383095	1215.226522572792	218.138058024397	343.104935792038	941.189688432305	392.594983916353	590.633787864255	855.341843896659	299.370943616628	652.288666264907	882.450697715395	200.797329730546	586.020151915467	730.659731270083	43.074911665968	554.384620303998	903.205154928957	96.483176977570	587.660564940039	815.103572299361	36.797237821512	627.543414699758	1023.053752739969	42.938336539091	613.300616231263	1138.526879301818	41.090998032478	382.208202851874	1210.579794399723	45.163842217380	300.342312957079	1283.047539605630	119.690302943531	320.672120051314	1415.591542330220	86.572658788958	291.406910266762	832.907982773603	1118.251091024624	233.225152888799	760.662777714759	869.453552175718	248.400432395074	1217.307983205197	1127.203281008719	749.546569565424	1416.075333419514	1232.213461302842	636.403528290083	
72	22.066785714286	828.558923959126	996.508499014072	512.016533898069	1003.249357399868	1420.982436930247	326.135352878810	1116.749728633448	1345.456285523997	477.572121021261	1050.973909081981	1422.300238453656	655.974692407237	1020.765189037590	1478.779687941548	482.257409789663	1055.803915867919	932.030413821425	624.258427769274	1036.543364666560	942.182955332014	348.390090414203	1051.014232649375	718.698457424650	599.932631137055	942.655024449738	626.689520188609	658.560026903844	1002.699653697679	559.568706566546	579.823901248669	980.378499826944	473.493907370851	582.111669366618	1111.438096131591	764.976547842810	378.544324787552	1064.331692820815	634.963803667747	298.755405528077	1170.846388275918	580.050876412187	356.581077494181	1197.602374074819	514.640081204243	353.844579943357	1182.922209661433	441.360982115491	342.596735233637	1118.024157947291	310.698909651122	293.745385349720	1208.364673395423	213.615339111099	345.381559262896	939.045164167246	390.532157340426	588.566089725186	851.900637235249	298.942894023672	650.897046120853	876.660141643809	199.792275935259	584.821968164277	722.535290271869	43.616044597281	554.275841627608	895.145832868932	96.350360708334	587.315165376850	806.932141728864	37.044136866498	627.423499244657	1014.901402245000	42.193873424893	613.404621150377	1126.616348792963	39.594795067770	384.278038849816	1198.976659030035	41.899228097105	302.513579790374	1273.814736675334	113.623949116862	323.860702048496	1405.547502883724	76.208526201468	294.649601472746	830.722365131128	1118.478481879674	231.401606717543	756.712926581804	870.188127527390	247.824230432973	1219.138153627870	1128.405019685209	747.415501713021	1409.860465816253	1243.597678332768	632.171314812108	
73	22.078571428571	829.914025525325	994.894361300443	509.069751381073	1003.592182441536	1419.523601973177	323.301577916894	1117.134735366349	1344.588404324731	475.055419912596	1050.649240561825	1421.564852345158	653.180656784184	1020.823129592584	1477.646551080520	479.251608836719	1056.940479145307	930.364626709649	621.975010363536	1038.431690757111	941.004038882366	346.382092700679	1052.086005744583	716.884549916662	597.754777786606	943.249429190188	625.141646146313	656.150545397129	1003.233821116044	557.603553778261	577.613395555327	980.155555495651	470.805689252850	579.708217176578	1113.811630702219	763.261456137082	377.383727140929	1065.829680271670	633.451650518699	298.432139639960	1171.797525721310	578.242589694745	357.057336848899	1197.165827564412	511.524944997183	354.939036402952	1181.504741705295	437.930932154798	343.382716042174	1114.157392173120	308.531720000790	294.308777191726	1201.721938410099	209.643442323849	347.218032016918	937.163202497915	388.530727986487	586.412637890853	848.652383802930	298.717290441418	649.404057035418	871.025694114061	198.972972601390	583.613762631940	714.452687149753	44.532452833610	554.187930781467	887.214084484634	96.319322913639	586.990190402186	798.819853935093	37.471782076149	627.294991932787	1006.793606888360	41.417984002861	613.510632279113	1115.000059988887	38.493529826376	385.758948925643	1187.692780243880	39.243935352897	304.129008767731	1264.664727910269	108.348175354553	326.573217680207	1395.657751822054	67.009829747809	297.477582051080	829.313339476198	1118.228521654024	229.518840461150	754.097311719152	870.297114301338	246.828258435689	1220.334706305024	1129.149287406298	745.709355405314	1403.085498707052	1253.309862712873	628.477183544324	
74	22.090357142857	831.220220820864	993.485998981951	506.148745954946	1003.965905513964	1418.238969243724	320.399401568226	1117.597989713885	1343.884127033892	472.447664298525	1050.481892699879	1421.013377300162	650.349834668633	1021.043204873878	1476.728308313388	476.140094720383	1058.145025407797	928.878955793777	619.551329585552	1040.186696776064	940.145715003529	344.264338198634	1053.342249333557	715.290793193297	595.398837623959	944.130617161291	623.729975003987	653.591944279390	1004.152168989712	555.799009288470	575.299534672827	980.427503529172	468.129136184805	577.329617715457	1116.163824764942	761.920779502444	376.048973491959	1067.424936611528	632.476367930504	297.733427522739	1172.807804081394	576.879906482439	357.239602971074	1196.801603476343	508.962986541431	355.672174353515	1180.260172876851	435.101490913108	343.807917396793	1110.779110815898	306.952909367944	294.224299835020	1195.475544289116	206.385433924056	348.556637029188	935.566830368242	386.672973060699	584.237971747022	845.606508572866	298.785082854429	647.851927854422	865.581126041474	198.429632680697	582.444403972389	706.429302422747	45.952375748560	554.140656423950	879.464576995679	96.420923320894	586.721466564927	790.782093189425	38.143158675600	627.176642461430	998.736616801224	40.642125098508	613.609741269857	1104.032904221184	37.794373174209	386.681799566636	1177.039392108827	37.274841118283	305.189365301054	1255.793720883977	104.103302794058	328.700169000088	1386.151593737236	59.455207201109	299.733595760517	828.781587257586	1117.497613985956	227.552465919150	752.873961717756	869.779044201779	245.398049917221	1220.812045549263	1129.392293007472	744.414608005206	1395.873660497315	1261.334664049919	625.305340912555	
75	22.102142857143	832.457099381833	992.375506107466	503.288826496342	1004.358351039361	1417.206961381837	317.466221868242	1118.129205968321	1343.395214271937	469.766534899186	1050.514759516415	1420.704107422434	647.507694887814	1021.429835152098	1476.089769546455	472.968087163369	1059.385349721109	927.659244541795	616.978099525804	1041.757921531626	939.682819882667	341.993444500387	1054.733559208730	714.007494964735	592.851106134904	945.305411973816	622.530600238576	650.916542940972	1005.470865516640	554.240994392859	572.907874736570	981.257958144479	465.540138556137	575.070747785415	1118.432827221829	761.086853353309	374.502293978469	1069.119839179750	632.092116024038	296.637654934363	1173.859870436639	576.023678032093	357.045300672785	1196.543177165762	507.039121160079	355.956011376808	1179.211125674541	432.928542510418	343.859617957362	1107.911186027031	306.001426236793	293.525492376874	1189.665710614793	203.897310572557	349.402607973051	934.314186892048	385.032987333747	582.125979077031	842.797789010248	299.231776224080	646.292935874123	860.380195691615	198.245860962168	581.371787653217	698.494018090099	48.009087413734	554.154921846308	871.960506324138	96.679221441005	586.549327265550	782.837144864234	39.122907866050	627.088437725109	990.733807182542	39.901001171669	613.691642258906	1093.868707908670	37.452146066674	387.121558114704	1167.139828450366	35.975520399334	305.749068060456	1247.266087044091	100.974645055039	330.209511082542	1377.112920679238	53.768559552763	301.348679946184	829.201735702386	1116.311402134267	225.472812115788	753.104698150276	868.653394133168	243.531274611653	1220.478462559167	1129.110922256741	743.506149901648	1388.338704467549	1267.674590329100	622.628323385023	
